<svg id="Layer_1" data-name="Layer 1" xmlns="http://www.w3.org/2000/svg" viewBox="0 0 844 180"><defs><style>.cls-1{fill:#003c4c;}.cls-2{fill:#186880;}.cls-3{fill:#219dc7;}.cls-4{fill:#40b3df;}.cls-5{fill:#0086ad;}.cls-6{fill:#48bbe7;}.cls-7{fill:#5bc0ea;}.cls-8{fill:#63c5ef;}.cls-9{fill:#23abd8;}.cls-10{fill:#75cbf0;}.cls-11{fill:#7bcef3;}.cls-12{fill:#85d2f5;}.cls-13{fill:#8cd5f6;}.cls-14{fill:#66c6ef;}.cls-15{fill:#18a7d5;}.cls-16{fill:#86d2f5;}.cls-17{fill:#79cef3;}.cls-18{fill:#9bdbf8;}.cls-19{fill:#fff;}.cls-20{fill:#0087ae;}</style></defs><title>Eric-Left-Strapline</title><polyline class="cls-1" points="93.7 97.9 74 38.9 54.2 97.9 12.1 101.3 67 167.7 80.9 167.7 135.9 101.3 93.7 97.9"/><polyline class="cls-1" points="57.4 88.4 73.8 148.4 34.5 158.9 57.4 88.4"/><polyline class="cls-1" points="90.5 88.4 73.8 148.4 113.4 158.9 90.5 88.4"/><polyline class="cls-2" points="128 27 104.5 52.8 105.6 76.9 119.2 67.6 128 27"/><polyline class="cls-2" points="19.8 27 28.7 67.5 42.4 76.9 43.4 52.9 19.8 27"/><polyline class="cls-3" points="139.2 53.9 119.2 67.6 114.3 89.9 125.3 85.7 139.2 53.9"/><polyline class="cls-4" points="119.2 67.6 105.6 76.9 105.6 77 93.8 97.9 114.3 89.9 114.3 89.9 119.2 67.6"/><polyline class="cls-2" points="141.3 79.4 125.3 85.7 119.1 99.9 119 100 123.5 100.3 141.3 79.4"/><path class="cls-5" d="M79.1,129.3L74,133.1v2.1l4.3-2.5,0.9-3.3M119,100L99,114.6l1.5,4.6,13.7-8.1,9.3-10.8L119,100"/><path class="cls-5" d="M88,126.8H82.5l-3.4,2.5-0.9,3.3,9.8-5.8m11-12.1-7.7,5.6,1.2,3.8,8-4.8L99,114.6"/><polyline class="cls-4" points="125.3 85.7 114.3 89.9 105.9 98.9 119 100 119.1 99.9 125.3 85.7"/><path class="cls-6" d="M79.8,126.8L74,133.1l5.2-3.8,0.7-2.5m26.1-27.9L97,108.4l2,6.2L119,100l-13.1-1.1"/><path class="cls-6" d="M82.5,126.8H79.8l-0.7,2.5,3.4-2.5M97,108.4l-7,7.5,1.4,4.4,7.7-5.6-2-6.2"/><polyline class="cls-7" points="114.3 89.9 93.8 97.9 93.8 97.9 105.9 98.9 114.3 89.9"/><path class="cls-8" d="M79.8,126.8H77.5L74,133.1l5.9-6.3h0M93.8,97.9v0.2L97,108.4l8.9-9.5-12.2-1"/><path class="cls-8" d="M79.9,126.8h0M93.6,98.1l-5.9,10.4,2.3,7.3,7-7.5L93.6,98.1"/><path class="cls-3" d="M45.1,12.7L43.4,52.9,56.6,67.3l6.6-22.8-18-31.8m57.8,0L84.7,44.8l6.4,22.7,13.4-14.7-1.7-40.1"/><polyline class="cls-9" points="73.8 132.5 73.8 132.5 74 133.1 73.8 132.5"/><polyline class="cls-4" points="104.5 52.8 91.1 67.5 91.1 67.5 87.8 80.2 90.2 87.4 105.6 76.9 104.5 52.8"/><path class="cls-6" d="M75.6,126.8h0L74,133.1l1.6-6.3M87.8,80.2l-4,15.4h0L85,91l5.3-3.6-2.4-7.2"/><polyline class="cls-4" points="43.4 52.9 42.4 76.9 57.7 87.4 60 80.5 56.6 67.3 56.6 67.3 43.4 52.9"/><path class="cls-6" d="M72.3,126.8h0l1.5,5.8h0l-1.5-5.8M60,80.5l-2.3,6.9,5.1,3.5,1.3,5h0L60,80.5"/><polyline class="cls-10" points="105.6 76.9 90.2 87.4 93.7 97.9 93.8 97.9 105.6 77 105.6 76.9"/><path class="cls-11" d="M77.5,126.8H75.6L74,133.1l3.5-6.3M90.2,87.4L85,91l-1.2,4.6,2.5,8.1,4.2-15.3,3.2,9.7V97.9L90.2,87.4"/><polyline class="cls-11" points="90.5 88.4 86.3 103.6 87.8 108.5 93.6 98.1 90.5 88.4"/><polyline class="cls-12" points="93.8 97.9 93.7 97.9 93.8 97.9 93.8 97.9"/><path class="cls-13" d="M77.5,126.8h0L74,133.1l3.5-6.3M93.7,97.9v0.2h0V97.9h0"/><polyline class="cls-13" points="93.6 98.1 87.8 108.5 87.8 108.5 93.6 98.1 93.6 98.1"/><polyline class="cls-3" points="8.8 53.9 22.6 85.7 33.5 89.9 28.7 67.5 8.8 53.9"/><polyline class="cls-4" points="28.7 67.5 33.5 89.9 54.2 97.9 42.4 77 42.4 76.9 28.7 67.5"/><polyline class="cls-14" points="73.8 132.5 73.9 132.9 74 133.1 73.8 132.5"/><polyline class="cls-10" points="42.4 76.9 42.4 77 54.2 97.9 54.2 97.9 54.2 97.9 57.7 87.4 42.4 76.9"/><path class="cls-11" d="M72.3,126.8H70.4l3.4,6.1v-0.4l-1.5-5.8M57.7,87.4L54.2,97.9h0v0.2l3.2-9.7,4.2,15.4,2.5-8-1.3-5-5.1-3.5"/><polyline class="cls-11" points="57.4 88.4 54.3 98.1 60.2 108.6 61.6 103.8 57.4 88.4"/><polyline class="cls-2" points="6.6 79.4 24.5 100.3 28.9 100 28.9 99.9 22.6 85.7 6.6 79.4"/><path class="cls-5" d="M68.6,129.1l0.9,3.4,4.5,2.7v-2.1H73.9l-0.2-.2-5.1-3.8M28.9,100l-4.4.4,9.3,10.8,13.7,8.1,1.5-4.6L28.9,100"/><path class="cls-5" d="M65.4,126.8H59.9l9.6,5.7-0.9-3.4-3.2-2.3M48.9,114.6l-1.5,4.6,8,4.8,1.2-3.8-7.7-5.6"/><polyline class="cls-15" points="73.7 132.8 73.9 133.1 73.9 133 73.7 132.8"/><polyline class="cls-4" points="22.6 85.7 28.9 99.9 28.9 100 41.9 98.9 33.5 89.9 33.5 89.9 22.6 85.7"/><path class="cls-6" d="M68,126.8H67.9l0.6,2.3,5.1,3.8L68,126.8M41.9,98.9l-13,1.1,20,14.7,2-6.2-9-9.6"/><path class="cls-6" d="M67.9,126.8H65.4l3.2,2.3-0.6-2.3m-17-18.3-2,6.2,7.7,5.6,1.3-4.3-7-7.5"/><polyline class="cls-6" points="73.9 132.9 73.9 133 74 133.1 73.9 132.9"/><polyline class="cls-7" points="33.5 89.9 33.5 89.9 41.9 98.9 54.2 97.9 54.2 97.9 33.5 89.9"/><path class="cls-8" d="M70.4,126.8H68l5.7,6.1h0.2l-3.4-6.1M54.2,97.9l-12.2,1,9,9.6,3.4-10.4V97.9"/><polyline class="cls-8" points="54.3 98.1 50.9 108.5 57.9 116 60.2 108.6 54.3 98.1"/><polyline class="cls-11" points="73.9 132.9 73.9 132.9 74 133.1 73.9 132.9"/><polyline class="cls-16" points="54.2 97.9 54.2 97.9 54.2 97.9 54.2 97.9 54.2 97.9"/><path class="cls-13" d="M70.4,126.8h0l3.4,6.1h0l-3.4-6.1M54.2,97.9h0v0.2h0V97.9"/><polyline class="cls-13" points="54.3 98.1 54.3 98.1 60.2 108.6 60.2 108.6 54.3 98.1"/><polyline class="cls-2" points="74 6.8 63.1 44.5 68.8 54.4 74 38.9 79.2 54.5 84.7 44.8 74 6.8"/><polyline class="cls-5" points="74 38.9 68.8 54.4 74 63.7 79.2 54.5 74 38.9"/><path class="cls-4" d="M84.7,44.8l-5.5,9.7,6.4,19.1,5.5-6.1L84.7,44.8m-21.6-.3L56.6,67.3l5.8,6.3,6.4-19.2-5.6-9.9"/><polyline class="cls-6" points="68.8 54.4 62.3 73.7 68.7 80.6 68.7 80.9 74 63.7 79.2 80.6 85.6 73.6 79.2 54.5 74 63.7 68.8 54.4"/><polyline class="cls-7" points="91.1 67.5 85.6 73.6 87.8 80.2 91.1 67.5 91.1 67.5"/><polyline class="cls-8" points="85.6 73.6 79.2 80.6 83.8 95.6 87.8 80.2 85.6 73.6"/><polyline class="cls-7" points="56.6 67.3 56.6 67.3 60 80.5 62.3 73.7 56.6 67.3"/><polyline class="cls-8" points="62.3 73.7 60 80.5 64.1 95.8 68.7 80.9 68.7 80.6 62.3 73.7"/><polyline class="cls-6" points="74.6 126.8 73.3 126.8 73.8 132.5 74 133.1 74.6 126.8"/><polyline class="cls-8" points="75.6 126.8 74.6 126.8 74 133.1 75.6 126.8"/><polyline class="cls-8" points="73.3 126.8 72.3 126.8 73.8 132.5 73.3 126.8"/><polyline class="cls-5" points="92.5 124.1 88 126.8 93.4 126.8 92.5 124.1"/><polyline class="cls-15" points="91.4 120.3 82.5 126.8 88 126.8 92.5 124.1 91.4 120.3"/><polyline class="cls-8" points="90 115.9 79.9 126.8 82.5 126.8 91.4 120.3 90 115.9"/><polyline class="cls-17" points="82.1 118.6 77.5 126.8 79.8 126.8 82.1 118.6"/><polyline class="cls-17" points="87.8 108.5 82.1 118.6 79.8 126.8 79.9 126.8 90 115.9 87.8 108.5"/><polyline class="cls-8" points="83.8 95.6 75.6 126.8 75.6 126.8 83.8 95.6 83.8 95.6"/><polyline class="cls-13" points="83.8 95.6 75.6 126.8 77.5 126.8 82.1 118.6 86.3 103.6 83.8 95.6"/><polyline class="cls-13" points="86.3 103.6 82.1 118.6 87.8 108.5 86.3 103.6"/><polyline class="cls-18" points="82.1 118.6 77.5 126.8 77.5 126.8 82.1 118.6 82.1 118.6"/><polyline class="cls-18" points="87.8 108.5 82.1 118.6 82.1 118.6 87.8 108.5 87.8 108.5"/><polyline class="cls-5" points="55.4 124.1 54.6 126.8 59.9 126.8 55.4 124.1"/><polyline class="cls-8" points="64.1 95.8 64.1 95.8 72.3 126.8 72.3 126.8 64.1 95.8"/><polyline class="cls-13" points="64.1 95.8 61.6 103.8 65.6 118.2 70.4 126.8 72.3 126.8 64.1 95.8"/><polyline class="cls-13" points="61.6 103.8 60.2 108.6 65.6 118.2 61.6 103.8"/><polyline class="cls-15" points="56.6 120.3 55.4 124.1 59.9 126.8 65.4 126.8 56.6 120.3"/><polyline class="cls-8" points="67.9 126.7 67.9 126.8 68 126.8 67.9 126.7"/><polyline class="cls-8" points="57.9 116 56.6 120.3 65.4 126.8 67.9 126.8 67.9 126.7 57.9 116"/><polyline class="cls-17" points="65.6 118.2 67.9 126.7 68 126.8 70.4 126.8 65.6 118.2"/><polyline class="cls-17" points="60.2 108.6 57.9 116 67.9 126.7 65.6 118.2 60.2 108.6"/><polyline class="cls-18" points="65.6 118.2 65.6 118.2 70.4 126.8 70.4 126.8 65.6 118.2"/><polyline class="cls-18" points="60.2 108.6 60.2 108.6 65.6 118.2 65.6 118.2 60.2 108.6"/><polyline class="cls-8" points="74 63.7 68.7 80.9 73.3 126.8 74.6 126.8 79.2 80.6 79.2 80.6 74 63.7"/><polyline class="cls-17" points="79.2 80.6 79.2 80.6 74.6 126.8 75.6 126.8 83.8 95.6 79.2 80.6"/><polyline class="cls-17" points="68.7 80.9 64.1 95.8 72.3 126.8 73.3 126.8 68.7 80.9"/><polygon class="cls-19" points="99.1 119.7 98.2 104.5 85.8 119.2 82.1 101.4 74 116.2 65.9 101.5 62.1 119.2 49.7 104.5 48.8 119.7 33.7 111.2 69.3 164.6 74 164.6 78.6 164.6 114.2 111.2 99.1 119.7"/><polygon class="cls-19" points="99.1 119.7 98.2 104.5 85.8 119.2 82.1 101.4 74 116.2 65.9 101.5 62.1 119.2 49.7 104.5 48.8 119.7 33.7 111.2 69.3 164.6 74 164.6 78.6 164.6 114.2 111.2 99.1 119.7"/><path class="cls-1" d="M60.3,133.1a4.9,4.9,0,0,0-4.6,4.7,4.6,4.6,0,0,0,4.6,4.6,4.7,4.7,0,0,1,4.4,3,1.8,1.8,0,0,0,1.7,1.1,2,2,0,0,0,1.8-1.4C69.7,140.9,66.4,133,60.3,133.1Z"/><circle class="cls-19" cx="60.9" cy="139" r="1.9"/><path class="cls-1" d="M87.6,133.1a4.9,4.9,0,0,1,4.6,4.7,4.6,4.6,0,0,1-4.6,4.6,4.7,4.7,0,0,0-4.4,3,1.8,1.8,0,0,1-1.7,1.1,2,2,0,0,1-1.9-1.4C78.2,140.9,81.5,133,87.6,133.1Z"/><circle class="cls-19" cx="87" cy="139" r="1.9"/><path class="cls-1" d="M81.5,164.6A7.6,7.6,0,1,1,74,157,7.6,7.6,0,0,1,81.5,164.6Z"/><path class="cls-20" d="M186.9,162.3c-22.2,0-39.4-18.6-39.4-42.4s17.2-42.4,39.4-42.4c18.4,0,32,10.4,37.1,27.1H207.2a22.4,22.4,0,0,0-20.3-12.9c-13.4,0-23.9,12.9-23.9,28.3s10.6,28.4,23.9,28.4c9.3,0,16.6-5.7,20.3-13.1h16.6C218.7,151.7,205,162.3,186.9,162.3Zm45.9-26.7c0,16.5,9.4,27.1,27.1,25.2V146.7c-7.6.5-11.5-2.6-11.5-11.1V73.7H232.8v61.9ZM294.9,99c-16.8,0-30.4,13.7-30.4,31.8s13.6,31.5,30.4,31.5,30.5-13.5,30.5-31.5S311.7,99,294.9,99Zm0,49.1c-8.2,0-14.9-7-14.9-17.2s6.7-17.7,14.9-17.7,14.9,7.3,14.9,17.7S303.1,148.1,294.9,148.1Zm94.6-12.8V100.5H374.1v35.3c0,6.7-4.9,11.5-11.7,11.5-10.2,0-11.4-8.1-11.4-11.5V100.5H335.5v34.8c0,15.8,10,27,26.9,27S389.6,150.7,389.6,135.4Zm72.1-61.7H446.2v32.6c-4.7-4.8-10.6-7-17.7-7-15.8,0-28.9,14.2-28.9,31.5s12.8,31.5,31.1,31.5,31-14.1,31-31.5V73.7Zm-15.5,57.2c0,9.4-6.9,17-15.5,17s-15.5-7.4-15.5-17,6.9-17.4,15.5-17.4S446.2,121.3,446.2,130.9Z"/><path class="cls-1" d="M516.5,160.9H486.4V79.5h30.1c22.6,0,36.7,15.6,36.7,40.7S538.8,160.9,516.5,160.9Zm0-67H501.8v52.5h14.7c18.4,0,21.2-16.5,21.2-26.4C537.7,108.2,534,94,516.5,94Zm48,0V85.3a7.8,7.8,0,0,1,15.6,0V94H564.5Zm15.6,67H564.6V100.5h15.5v60.4Zm45.9-61.6C605.9,96.9,594,108.9,594,126v34.9h15.5V126c0-8.6,6.6-13.8,16.4-12.1V99.4Zm65,42.3c-3.5,12.3-14.2,20.6-29.2,20.6-17.1,0-31-14.1-31-31.5S644.6,99,661.7,99c14.5,0,26.7,9.1,29.7,25.3l-42.7,17.9a15.7,15.7,0,0,0,12.9,6.5c5,0,10.2-2.2,12.8-7h16.5ZM673.6,118a15.2,15.2,0,0,0-12-5.4c-8.9,0-16.1,7-16.4,17.4Zm85.5,22.5H742.5a14.2,14.2,0,0,1-12.7,7.7c-8.6,0-15.5-7.9-15.5-17.4s6.9-17.7,15.5-17.7a14.4,14.4,0,0,1,12.6,7.6h16.5C755.4,107.2,744.4,99,729.9,99c-18.2,0-31.2,14.3-31.2,31.8s13,31.5,31.2,31.5C744.5,162.3,755.5,154.2,759.1,140.5Zm36.4,6.2c-7.7.5-11.6-2.7-11.6-11.1V114.3h10.9V100.5H783.8V85.2H768.3v50.3c0,16.5,9.4,27.2,27.1,25.3V146.7Z"/><path class="cls-1" d="M839.6,97.4A14.9,14.9,0,1,1,824.8,83,14.5,14.5,0,0,1,839.6,97.4Zm-26,0A11.2,11.2,0,0,0,824.9,109c6.4,0,11-5.1,11-11.5s-4.7-11.6-11.1-11.6A11.2,11.2,0,0,0,813.6,97.4Zm8.9,7.6h-3.4V90.6a29.1,29.1,0,0,1,5.6-.4,9.1,9.1,0,0,1,5,1.1,4,4,0,0,1,1.4,3.2c0,1.6-1.2,2.8-3,3.3v0.2c1.4,0.5,2.2,1.6,2.6,3.5a11.6,11.6,0,0,0,1.1,3.6h-3.6a12.5,12.5,0,0,1-1.1-3.5c-0.3-1.6-1.2-2.3-3-2.3h-1.6V105Zm0.1-8.2h1.6c1.8,0,3.3-.6,3.3-2.1s-1-2.2-3.1-2.2l-1.9.2v4.1Z"/></svg>